<?xml version="1.0" standalone="no"?>
<!DOCTYPE svg PUBLIC "-//W3C//DTD SVG 20010904//EN"
 "http://www.w3.org/TR/2001/REC-SVG-20010904/DTD/svg10.dtd">
<svg version="1.0" xmlns="http://www.w3.org/2000/svg"
 width="113.000000pt" height="113.000000pt" viewBox="0 0 113.000000 113.000000"
 preserveAspectRatio="xMidYMid meet">
<metadata>
Created by potrace 1.11, written by Peter Selinger 2001-2013
</metadata>
<g transform="translate(0.000000,113.000000) scale(0.100000,-0.100000)"
fill="#000000" stroke="none">
<path d="M696 1069 c-2 -8 -10 -32 -17 -54 -18 -62 -45 -109 -113 -202 -116
-156 -127 -274 -35 -376 31 -35 38 -39 44 -25 4 11 -1 25 -15 40 -87 93 -75
201 41 353 56 75 87 128 103 183 11 33 23 27 56 -30 71 -124 94 -306 50 -406
-33 -74 -98 -132 -148 -132 -17 0 -32 -18 -32 -37 0 -13 76 11 111 34 125 82
159 264 89 469 -33 95 -123 218 -134 183z"/>
<path d="M220 802 c-114 -116 -148 -219 -115 -347 26 -99 71 -152 153 -180 31
-11 37 -11 40 1 2 8 7 14 12 14 15 0 63 -91 54 -100 -9 -8 -43 -15 -124 -26
-25 -3 -63 -9 -85 -14 -22 -5 -60 -10 -85 -10 -58 0 -72 -10 -68 -46 2 -24 8
-29 28 -28 40 1 140 13 205 23 33 5 78 13 100 16 67 11 238 14 285 5 25 -5 61
-11 80 -14 35 -6 64 -11 110 -21 87 -19 135 -25 205 -26 118 -2 115 -3 115 36
l0 35 -87 1 c-49 0 -95 2 -103 4 -8 1 -31 5 -50 9 -36 5 -115 21 -160 31 -14
3 -58 10 -97 16 -40 6 -73 15 -73 19 0 17 41 164 49 174 4 6 27 46 50 89 43
79 71 181 70 252 -1 36 -2 34 -14 -24 -21 -96 -42 -152 -81 -216 -66 -111
-106 -209 -109 -270 0 -5 -26 -12 -57 -15 -55 -5 -58 -4 -69 21 -6 15 -35 53
-66 86 -83 88 -100 119 -116 208 l-15 80 -1 -60 c-1 -83 13 -125 60 -179 44
-50 38 -57 -26 -26 -46 22 -80 73 -99 148 -26 98 1 196 76 277 27 30 54 55 58
55 4 0 11 -11 14 -25 4 -14 32 -72 64 -128 53 -95 57 -106 57 -168 0 -57 -4
-73 -33 -118 -29 -47 -34 -71 -14 -71 4 0 23 23 42 51 33 49 35 57 35 133 0
73 -4 88 -34 146 -18 36 -42 77 -52 91 -10 14 -27 57 -37 95 l-19 69 -73 -73z"/>
</g>
</svg>
